<?xml version="1.0" encoding="utf-8"?>
<!-- Generator: Adobe Illustrator 23.0.5, SVG Export Plug-In . SVG Version: 6.00 Build 0)  -->
<svg version="1.1" id="Capa_1" xmlns="http://www.w3.org/2000/svg" xmlns:xlink="http://www.w3.org/1999/xlink" x="0px" y="0px"
	 viewBox="0 0 284.9 284.9" style="enable-background:new 0 0 284.9 284.9;" xml:space="preserve">
<style type="text/css">
	.st0{fill:#FFFFFF;}
</style>
<g>
	<path class="st0" d="M282.1,177.9l-14.3,12.9c-1.9,1.7-4.1,2.6-6.6,2.6c-2.5,0-4.7-0.9-6.6-2.6L142.5,89.3L30.3,190.8
		c-1.9,1.7-4.1,2.6-6.6,2.6c-2.5,0-4.7-0.9-6.6-2.6L2.9,177.9c-1.9-1.7-2.9-3.7-2.9-5.9c0-2.2,1-4.2,2.9-5.9l133-120.4
		c1.9-1.7,4.1-2.6,6.6-2.6s4.7,0.9,6.6,2.6L282.1,166c1.9,1.7,2.8,3.7,2.8,5.9C284.9,174.2,284,176.2,282.1,177.9z"/>
</g>
</svg>
