<?xml version="1.0" encoding="utf-8"?>
<!-- Generator: Adobe Illustrator 23.0.5, SVG Export Plug-In . SVG Version: 6.00 Build 0)  -->
<svg version="1.1" id="Layer_1" xmlns="http://www.w3.org/2000/svg" xmlns:xlink="http://www.w3.org/1999/xlink" x="0px" y="0px"
	 viewBox="0 0 64 64" style="enable-background:new 0 0 64 64;" xml:space="preserve">
<style type="text/css">
	.st0{fill:#48909F;}
</style>
<title></title>
<path class="st0" d="M28,30.2c2.4-3.8,1.3-8.8-2.5-11.2c-1.3-0.8-2.9-1.3-4.4-1.3H8.8c-0.6,0-1,0.4-1,1c0,0,0,0,0,0.1v27.3
	c0,0.6,0.4,1,1,1h13.8c5.1,0,9.3-4.2,9.3-9.3C31.9,34.8,30.4,32,28,30.2z M13.1,23.2h8.1c1.5,0,2.7,1.2,2.7,2.7
	c0,1.5-1.2,2.7-2.7,2.7h-8.1V23.2z M22.7,41.7h-9.5V34h9.6c2.1,0,3.9,1.7,3.9,3.9C26.5,40,24.8,41.7,22.7,41.7L22.7,41.7z"/>
<path class="st0" d="M55.7,35.9c0.1-6.3-4.9-11.4-11.1-11.5c-6.3,0.1-11.2,5.3-11.1,11.5c-0.1,6.3,4.9,11.4,11.1,11.5
	c3.8,0,7.2-2,9.3-5.1c0.3-0.4,0.5-0.8,0.7-1.3c0.1-0.2,0-0.5-0.2-0.6c-0.1,0-0.1,0-0.2,0h-5.5c-0.1,0-0.2,0-0.3,0.1
	c-1,1-2.3,1.5-3.7,1.5c-2.7-0.1-5.1-2-5.6-4.8h15.6c0.6,0,1.1-0.5,1.1-1.1c0,0,0,0,0,0V35.9z M44.6,29.8c2,0,3.8,1.1,4.8,2.8h-9.5
	C40.8,30.9,42.6,29.9,44.6,29.8z"/>
<path class="st0" d="M49.2,23h-9.9c-0.5,0-0.8-0.4-0.8-0.8v-2.5c0-0.5,0.4-0.8,0.8-0.8l0,0h9.9c0.5,0,0.8,0.4,0.8,0.8v2.5
	C50,22.7,49.7,23,49.2,23L49.2,23z"/>
</svg>
