<?xml version="1.0" encoding="utf-8"?>
<!-- Generator: Adobe Illustrator 23.0.5, SVG Export Plug-In . SVG Version: 6.00 Build 0)  -->
<svg version="1.1" id="twiter" xmlns="http://www.w3.org/2000/svg" xmlns:xlink="http://www.w3.org/1999/xlink" x="0px" y="0px"
	 viewBox="0 0 211.4 175.1" style="enable-background:new 0 0 211.4 175.1;" xml:space="preserve">
<style type="text/css">
	.st0{fill:#468E9C;}
</style>
<path class="st0" d="M209.6,20.5c-1.4-1-3.3-0.9-4.7,0.1c-1.8,1.4-4.7,2.4-7.9,3.3c8.2-9.2,8.4-15.3,8.3-16.7
	c-0.1-1.5-1-2.7-2.3-3.4c-1.3-0.6-2.9-0.5-4.1,0.4c-9.2,6.7-18.4,8.1-23.8,8.3C166.8,4.4,156,0,144.4,0c-24.8,0-44.9,20.4-44.9,45.5
	c0,2.2,0.2,4.3,0.5,6.5c-43-0.5-77.8-41.6-78.2-42.1c-0.8-1-2.1-1.5-3.4-1.4c-1.3,0.1-2.5,0.9-3.1,2c-12.4,21.4-4.1,40.3,3.5,51.1
	c-1.3-0.7-2.4-1.4-3.1-1.9c-1.2-0.9-2.8-1-4.2-0.4c-1.3,0.7-2.2,2-2.2,3.5c-0.3,20.4,9.5,32.1,18.7,38.6c-1.2-0.1-2.5,0.3-3.3,1.3
	c-1,1-1.3,2.5-0.9,3.9c6.4,20.9,22.1,28,32.1,30.4C35.2,153,5,147.8,4.7,147.8c-1.8-0.3-3.6,0.6-4.4,2.3c-0.7,1.7-0.2,3.7,1.2,4.8
	c21.7,16.5,47.6,20.2,66.3,20.2c14.2,0,24.2-2.1,25.2-2.3c94.8-22.5,97.5-109.3,97.2-123.5c17.8-16.5,20.6-22.9,21-24.4
	C211.7,23.2,211.1,21.4,209.6,20.5z M183.5,44.6c-0.9,0.8-1.4,2-1.3,3.2c0.3,3.8,5.1,94.4-91,117.2c-0.4,0.1-38.6,8.1-71.7-8.3
	c14-0.4,34-4.1,48-19.7c1.1-1.2,1.3-2.9,0.7-4.3c-0.6-1.4-2.1-2.3-3.6-2.3c0,0,0,0,0,0c-0.2,0.1-21.2,0-30.8-20
	c3.9,0.2,8.6,0,12.5-1.8c1.6-0.7,2.5-2.4,2.3-4.1c-0.2-1.7-1.5-3.1-3.2-3.5c-1.1-0.2-24.5-5.5-27.7-31c3.5,1.6,8.1,2.8,12.6,2.1
	c1.5-0.2,2.8-1.3,3.2-2.8c0.4-1.5,0-3.1-1.2-4.1c-1-0.9-23-20.4-12.5-45.6C30.9,31.4,64.4,62.2,105,59.9c1.2-0.1,2.3-0.7,3-1.6
	c0.7-1,0.9-2.2,0.7-3.3c-0.8-3.1-1.2-6.2-1.2-9.4C107.4,24.8,124,8,144.4,8c10,0,19.3,4,26.3,11.2c0.7,0.8,1.7,1.2,2.8,1.2
	c4.2,0.1,11.2-0.4,19.1-3.6c-2.3,2.8-5.6,6.2-10.5,10.1c-1.4,1.1-1.9,3-1.3,4.6c0.6,1.6,2.3,2.7,4,2.5c0.9-0.1,5.7-0.5,11.1-1.7
	C193,35.5,189,39.5,183.5,44.6z"/>
</svg>
